<svg xmlns="http://www.w3.org/2000/svg" xmlns:xlink="http://www.w3.org/1999/xlink" width="1661.242" height="698.807" viewBox="0 0 1661.242 698.807">
  <defs>
    <linearGradient id="linear-gradient" x1="0.5" x2="0.5" y2="1" gradientUnits="objectBoundingBox">
      <stop offset="0" stop-color="#191919"/>
      <stop offset="0.633" stop-color="#121212"/>
      <stop offset="1"/>
    </linearGradient>
    <linearGradient id="linear-gradient-2" x1="39.734" y1="-4.502" x2="39.754" y2="-4.507" gradientUnits="objectBoundingBox">
      <stop offset="0" stop-color="#fff"/>
      <stop offset="1" stop-color="#fff" stop-opacity="0.169"/>
    </linearGradient>
    <linearGradient id="linear-gradient-3" x1="38.022" y1="-6.172" x2="38.041" y2="-6.178" xlink:href="#linear-gradient-2"/>
  </defs>
  <g id="Group_2131" data-name="Group 2131" transform="translate(-139.667 -0.076)">
    <path id="Path_2443" d="M419.356-149.924l121.89,326.757,118.5-326.757Z" transform="translate(409.758 150)" fill="url(#linear-gradient)"/>
    <ellipse id="Ellipse_122" cx="9.933" cy="16.671" rx="9.933" ry="16.671" transform="matrix(0.891, -0.454, 0.454, 0.891, 1055.086, 215.583)" fill="#fadc64" opacity="0.5"/>
    <path id="Rectangle_759" d="M778.806,123.9h0a1.055,1.055,0,0,1,1.452.407l3.543,6.157a1.055,1.055,0,0,1-.407,1.452h0a1.055,1.055,0,0,1-1.452-.407l-3.543-6.157A1.055,1.055,0,0,1,778.806,123.9Z" transform="translate(286.714 98.127)" fill="#002776"/>
    <path id="Rectangle_760" d="M784.867,132.566h0a1.035,1.035,0,0,1,.29-1.452l7.144-4.647a1.035,1.035,0,0,1,1.452.29h0a1.035,1.035,0,0,1-.29,1.452l-7.145,4.647A1,1,0,0,1,784.867,132.566Z" transform="translate(284.021 97.069)" fill="#002776"/>
    <path id="Path_2434" d="M348.157,162.152s-.755-3.253,3.137-5.053,54.658-29.8,54.658-29.8,2.149-.755,2.091,1.278,0,45.365,0,45.365a2.705,2.705,0,0,1-1.394,2.9c-1.8.871-56.169,31.308-56.169,31.308s-2.323.465-2.323-1.8Z" transform="translate(467.014 96.7)" stroke="rgba(255,255,255,0.5)" stroke-width="1"/>
    <g id="Group_2128" data-name="Group 2128" opacity="0.5">
      <path id="Path_2432" d="M-471.1,660.628l625.809-389.7s8.132-7.086,20.446,0,64.591,38.743,64.591,38.743,8.829,5.344,17.426,0,40.427-24.28,40.427-24.28" transform="translate(611.031 37.762)" fill="none" stroke="#fff" stroke-width="1"/>
      <path id="Path_2433_00000049940621022881724220000008840908680704936850_" d="M370.9,252.992l121.4,71.445s10.049,6.448,22.363-1.278,120.818-73.478,120.818-73.478a18.135,18.135,0,0,1,18.936,0C672.6,260.195,1343.2,651.99,1343.2,651.99" transform="translate(457.457 46.462)" fill="none" stroke="#fff" stroke-width="1"/>
      <path id="Path_2442" d="M494.24,216.521l-29.507,16.554s-5.112,5.867.871,10.223,60.641,34.793,60.641,34.793,7.551,3.543,14.638,0,55.472-32.3,55.472-32.3,8.48-5.518-1.046-10.455-27.751-14.566-27.751-14.566" transform="translate(418.98 65.333)" fill="none" stroke="#fff" stroke-width="1"/>
      <path id="Path_2441" d="M616.774,186.2,581.4,208.5l.523,45.539,34.851-20.388Z" transform="translate(369.227 71.955)" fill="none" stroke="#fff" stroke-width="1"/>
      <path id="Path_2440" d="M517,231.565V186.2l37.7,22.247V254.16Z" transform="translate(396.22 71.955)" fill="none" stroke="#fff" stroke-width="1"/>
      <path id="Path_2438" d="M581.494,166.1l8.346,4.932L554.7,193.164,517,171.034l10.072-5.958" transform="translate(396.22 87.296)" fill="none" stroke="#fff" stroke-width="1"/>
      <path id="Path_2439" d="M536.2,175.16l26.6,15.625,25.558-15.044" transform="translate(388.172 82.937)" fill="none" stroke="#fff" stroke-width="1"/>
    </g>
    <path id="Path_2445" d="M372.458,172.15a2.426,2.426,0,0,1,1.51-2.614c1.859-.929,26.255-15.393,26.255-15.393s1.046-.407.987.639,0,23.467,0,23.467a1.55,1.55,0,0,1-.639,1.51c-.871.465-27.01,16.148-27.01,16.148a.92.92,0,0,1-1.1-.581.736.736,0,0,1-.058-.349l.058-22.828Z" transform="translate(464.211 82.394)" opacity="0.12" fill="url(#linear-gradient-2)"/>
    <path id="Path_2446" d="M365.179,208.205a2.426,2.426,0,0,1,1.51-2.614c1.859-.929,27.416-16.148,27.416-16.148s1.046-.407.987.639.29,14.579.29,14.579a1.55,1.55,0,0,1-.639,1.51c-.871.465-28.346,16.787-28.346,16.787a.92.92,0,0,1-1.1-.581.737.737,0,0,1-.058-.349C365.3,220.868,365.179,208.205,365.179,208.205Z" transform="translate(459.611 69.088)" opacity="0.14" fill="url(#linear-gradient-3)"/>
    <path id="Path_2439-2" data-name="Path_2439" d="M536.2,175.16l26.6,15.625,25.558-15.044" transform="translate(1513.197 433.838) rotate(180)" fill="none" stroke="#9baccf" stroke-width="1" opacity="0.28"/>
    <path id="Path_3012" data-name="Path 3012" d="M1006.3,143.32l27.014-15.334,27.408,16.359" transform="translate(-83.07 109)" fill="none" stroke="#9baccf" stroke-width="1" opacity="0.28"/>
    <path id="Path_2436" d="M644.288,9.481s-2.207-.871-2.091,1.394.349,44.435.349,44.435-.29,1.394,1.743,2.44,60.177,31.715,60.177,31.715,2.033.871,2.091-.987,0-46.178,0-46.178a2.958,2.958,0,0,0-1.8-2.44C703.128,39.047,644.288,9.481,644.288,9.481Z" transform="translate(343.746 146.095)" stroke="rgba(255,255,255,0.5)" stroke-width="1"/>
    <path id="Path_2437" d="M700.505,131.786s-1.626-.349-1.743,1.859,0,49.373,0,49.373a3.4,3.4,0,0,0,1.743,2.73c1.743.987,60.351,33.573,60.351,33.573s2.382,1.046,2.265-1.51,0-50.592,0-50.592a2.628,2.628,0,0,0-1.452-2.846C759.753,163.21,700.505,131.786,700.505,131.786Z" transform="translate(320.057 94.771)" stroke="rgba(255,255,255,0.5)" stroke-width="1"/>
    <path id="Rectangle_776" d="M-456.258-107.967h0a.744.744,0,0,1,.987-.29l8.132,4.3a.744.744,0,0,1,.29.987h0a.744.744,0,0,1-.987.29l-8.132-4.3A.761.761,0,0,1-456.258-107.967Z" transform="translate(1474.771 290.134)" fill="#fff"/>
    <path id="Rectangle_777" d="M-437.758-97.567h0a.744.744,0,0,1,.987-.29l8.132,4.3a.744.744,0,0,1,.29.987h0a.744.744,0,0,1-.987.29l-8.132-4.3A.728.728,0,0,1-437.758-97.567Z" transform="translate(1467.018 285.775)" fill="#fff"/>
    <path id="Rectangle_778" d="M-478.049-112.167h0a.744.744,0,0,1,.987-.29l13.94,7.435a.744.744,0,0,1,.29.987h0a.744.744,0,0,1-.987.29L-477.7-111.18A.767.767,0,0,1-478.049-112.167Z" transform="translate(1483.9 291.895)" fill="#fff"/>
    <path id="Rectangle_779" d="M-448.358-96.467h0a.744.744,0,0,1,.987-.29l13.941,7.435a.744.744,0,0,1,.29.987h0a.744.744,0,0,1-.987.29l-13.94-7.435A.744.744,0,0,1-448.358-96.467Z" transform="translate(1471.46 285.313)" fill="#fff"/>
    <path id="Rectangle_780" d="M-460.576-62.067h0a.744.744,0,0,1,.987-.29l13.94,7.435a.744.744,0,0,1,.29.987h0a.744.744,0,0,1-.987.29l-13.94-7.435A.709.709,0,0,1-460.576-62.067Z" transform="translate(1476.592 270.895)" fill="#fff"/>
    <path id="Rectangle_781" d="M-465.458-97.767h0a.744.744,0,0,1,.987-.29l7.9,4.182a.744.744,0,0,1,.29.987h0a.744.744,0,0,1-.987.29l-7.9-4.182A.761.761,0,0,1-465.458-97.767Z" transform="translate(1478.628 285.858)" fill="#fff"/>
    <path id="Rectangle_782" d="M-446.876-88.167h0a.744.744,0,0,1,.987-.29l7.9,4.182a.744.744,0,0,1,.29.987h0a.744.744,0,0,1-.987.29l-7.9-4.182A.7.7,0,0,1-446.876-88.167Z" transform="translate(1470.85 281.835)" fill="#fff"/>
    <path id="Rectangle_783" d="M-460.576-87.167h0a.744.744,0,0,1,.987-.29l6.331,3.369a.744.744,0,0,1,.29.987h0a.744.744,0,0,1-.987.29l-6.331-3.369A.709.709,0,0,1-460.576-87.167Z" transform="translate(1476.592 281.416)" fill="#fff"/>
    <path id="Rectangle_784" d="M-444.858-78.667h0a.744.744,0,0,1,.987-.29l6.331,3.369a.744.744,0,0,1,.29.987h0a.744.744,0,0,1-.987.29l-6.331-3.369A.744.744,0,0,1-444.858-78.667Z" transform="translate(1469.993 277.853)" fill="#fff"/>
    <path id="Rectangle_785" d="M-439.958-67.867h0a.744.744,0,0,1,.987-.29l5.692,3.02a.744.744,0,0,1,.29.987h0a.744.744,0,0,1-.987.29l-5.692-3.079A.677.677,0,0,1-439.958-67.867Z" transform="translate(1467.939 273.326)" fill="#fff"/>
    <path id="Rectangle_786" d="M-465.558-73.167h0a.744.744,0,0,1,.987-.29l6.389,3.369a.744.744,0,0,1,.29.987h0a.744.744,0,0,1-.987.29l-6.389-3.369A.744.744,0,0,1-465.558-73.167Z" transform="translate(1478.669 275.548)" fill="#fff"/>
    <path id="Rectangle_787" d="M-447.649-63.967h0a.744.744,0,0,1,.987-.29l14.521,7.725a.744.744,0,0,1,.29.987h0a.744.744,0,0,1-.987.29L-447.3-62.98A.767.767,0,0,1-447.649-63.967Z" transform="translate(1471.158 271.691)" fill="#fff"/>
    <path id="Rectangle_761" d="M-445.35-112.167h0a.744.744,0,0,1,.987-.29l13.127,6.97a.744.744,0,0,1,.29.987h0a.744.744,0,0,1-.987.29l-13.127-6.97A.806.806,0,0,1-445.35-112.167Z" transform="translate(1503.314 365.809)" fill="#fff"/>
    <path id="Rectangle_762" d="M-459.958-112.167h0a.744.744,0,0,1,.987-.29l9.352,5a.744.744,0,0,1,.29.987h0a.744.744,0,0,1-.987.29l-9.352-5A.744.744,0,0,1-459.958-112.167Z" transform="translate(1509.441 365.809)" fill="#fff"/>
    <path id="Rectangle_763" d="M-438.858-100.267h0a.744.744,0,0,1,.987-.29l9.352,5a.744.744,0,0,1,.29.987h0a.744.744,0,0,1-.987.29l-9.352-5A.744.744,0,0,1-438.858-100.267Z" transform="translate(1500.598 360.82)" fill="#fff"/>
    <path id="Rectangle_764" d="M-456.258-99.767h0a.744.744,0,0,1,.987-.29l7.493,4.008a.744.744,0,0,1,.29.987h0a.744.744,0,0,1-.987.29l-7.493-4.008A.744.744,0,0,1-456.258-99.767Z" transform="translate(1507.891 360.611)" fill="#fff"/>
    <path id="Rectangle_765" d="M-437.758-89.567h0a.744.744,0,0,1,.987-.29l7.493,4.008a.744.744,0,0,1,.29.987h0a.744.744,0,0,1-.987.29l-7.493-4.008A.744.744,0,0,1-437.758-89.567Z" transform="translate(1500.137 356.335)" fill="#fff"/>
    <path id="Rectangle_766" d="M-478.049-104.867h0a.744.744,0,0,1,.987-.29L-462.6-97.49a.744.744,0,0,1,.29.987h0a.744.744,0,0,1-.987.29L-477.7-103.88A.767.767,0,0,1-478.049-104.867Z" transform="translate(1517.02 362.749)" fill="#fff"/>
    <path id="Rectangle_767" d="M-448.958-89.567h0a.744.744,0,0,1,.987-.29l14.463,7.667a.744.744,0,0,1,.29.987h0a.744.744,0,0,1-.987.29l-14.463-7.667A.744.744,0,0,1-448.958-89.567Z" transform="translate(1504.831 356.335)" fill="#fff"/>
    <path id="Rectangle_768" d="M-448.958-56.567h0a.744.744,0,0,1,.987-.29l14.463,7.667a.744.744,0,0,1,.29.987h0a.744.744,0,0,1-.987.29l-14.463-7.667A.744.744,0,0,1-448.958-56.567Z" transform="translate(1504.831 342.504)" fill="#fff"/>
    <path id="Rectangle_769" d="M-460.649-54.067h0a.744.744,0,0,1,.987-.29L-445.2-46.69a.744.744,0,0,1,.29.987h0a.744.744,0,0,1-.987.29L-460.3-53.138A.7.7,0,0,1-460.649-54.067Z" transform="translate(1509.727 341.456)" fill="#fff"/>
    <path id="Rectangle_770" d="M-464.558-64.667h0a.744.744,0,0,1,.987-.29l5.46,2.9a.744.744,0,0,1,.29.987h0a.744.744,0,0,1-.987.29l-5.46-2.9A.744.744,0,0,1-464.558-64.667Z" transform="translate(1511.37 345.899)" fill="#fff"/>
    <path id="Rectangle_771" d="M-441.158-60.767h0a.744.744,0,0,1,.987-.29l7.319,3.892a.744.744,0,0,1,.29.987h0a.744.744,0,0,1-.987.29l-7.319-3.892A.744.744,0,0,1-441.158-60.767Z" transform="translate(1501.562 344.264)" fill="#fff"/>
    <path id="Rectangle_772" d="M-465.858-90.067h0a.744.744,0,0,1,.987-.29l7.319,3.892a.744.744,0,0,1,.29.987h0a.744.744,0,0,1-.987.29l-7.319-3.892A.744.744,0,0,1-465.858-90.067Z" transform="translate(1511.915 356.545)" fill="#fff"/>
    <path id="Rectangle_773" d="M-446.858-79.267h0a.744.744,0,0,1,.987-.29l7.319,3.892a.744.744,0,0,1,.29.987h0a.744.744,0,0,1-.987.29l-7.319-3.892A.761.761,0,0,1-446.858-79.267Z" transform="translate(1503.951 352.019)" fill="#fff"/>
    <path id="Rectangle_774" d="M-460.649-79.967h0a.744.744,0,0,1,.987-.29l5.576,2.962a.744.744,0,0,1,.29.987h0a.744.744,0,0,1-.987.29L-460.3-78.98A.767.767,0,0,1-460.649-79.967Z" transform="translate(1509.727 352.312)" fill="#fff"/>
    <path id="Rectangle_775" d="M-445.258-71.467h0a.744.744,0,0,1,.987-.29l6.68,3.543a.744.744,0,0,1,.29.987h0a.744.744,0,0,1-.987.29l-6.68-3.543A.761.761,0,0,1-445.258-71.467Z" transform="translate(1503.28 348.749)" fill="#fff"/>
    <path id="Path_2435" d="M300.393,324.209c-2.033,1.22-14.521,8.771-14.521,8.771s-1.336,1.1,0,1.859,15.625,9.119,15.625,9.119a4.443,4.443,0,0,0,4.182,0c2.149-1.22,14.463-8.306,14.463-8.306s1.452-1.452-.755-2.672-14.87-8.771-14.87-8.771A4.341,4.341,0,0,0,300.393,324.209Z" transform="translate(493.345 15.337)"/>
    <path id="Path_2444" d="M300.393,314.39c-2.033,1.22-14.521,8.771-14.521,8.771s-1.336,1.1,0,1.859,15.625,9.119,15.625,9.119a4.443,4.443,0,0,0,4.182,0c2.149-1.22,14.463-8.306,14.463-8.306s1.452-1.452-.755-2.672-14.87-8.771-14.87-8.771A4.17,4.17,0,0,0,300.393,314.39Z" transform="translate(493.345 18.463)" fill="#fadc64" opacity="0.5"/>
    <ellipse id="Ellipse_120" cx="3.195" cy="2.149" rx="3.195" ry="2.149" transform="translate(885.048 332.969)" fill="#ff6"/>
    <ellipse id="Ellipse_118" cx="3.195" cy="2.149" rx="3.195" ry="2.149" transform="translate(738.963 320.888)" fill="#ff6"/>
    <ellipse id="Ellipse_121" cx="3.195" cy="2.149" rx="3.195" ry="2.149" transform="translate(1012.836 340.637)" fill="#ff6"/>
    <ellipse id="Ellipse_121_00000127745770037337317250000017127518565495470479_" cx="3.195" cy="2.149" rx="3.195" ry="2.149" transform="translate(1216.173 356.668)" fill="#c60c31"/>
    <ellipse id="Ellipse_121_00000041291466836118727960000017806013764384624793_" cx="3.195" cy="2.149" rx="3.195" ry="2.149" transform="translate(1125.813 304.043)" fill="#ff6"/>
  </g>
</svg>
