<?xml version="1.0" encoding="utf-8"?>
<!-- Generator: Adobe Illustrator 25.4.1, SVG Export Plug-In . SVG Version: 6.00 Build 0)  -->
<svg version="1.1" id="Layer_1" xmlns="http://www.w3.org/2000/svg" xmlns:xlink="http://www.w3.org/1999/xlink" x="0px" y="0px"
	 width="26.4px" height="26.4px" viewBox="0 0 26.4 26.4" style="enable-background:new 0 0 26.4 26.4;" xml:space="preserve">
<style type="text/css">
	.st0{fill:#B3025C;}
	.st1{fill:#FFFFFF;}
</style>
<g>
	<circle class="st0" cx="13.2" cy="13.2" r="13.2"/>
</g>
<path class="st1" d="M18.6,6.8h-1.5V5.2c0-0.2-0.2-0.4-0.4-0.4h-1.2c-0.2,0-0.4,0.2-0.4,0.4v1.6h-3.9V5.2c0-0.2-0.2-0.4-0.4-0.4H9.6
	C9.4,4.8,9.3,5,9.3,5.2v1.6H7.8C7,6.8,6.3,7.5,6.3,8.3v10.8c0,0.8,0.7,1.5,1.5,1.5h10.8c0.8,0,1.5-0.7,1.5-1.5V8.3
	C20.1,7.5,19.4,6.8,18.6,6.8z M18.4,19.1H8c-0.1,0-0.2-0.1-0.2-0.2V9.7h10.8v9.2C18.6,19,18.5,19.1,18.4,19.1z M16.8,12.9l-4.4,4.3
	c-0.1,0.1-0.4,0.1-0.5,0l-2.3-2.3c-0.1-0.1-0.1-0.4,0-0.5l0.7-0.7c0.1-0.1,0.4-0.1,0.5,0l1.4,1.4l3.4-3.4c0.1-0.1,0.4-0.1,0.5,0
	l0.7,0.7C16.9,12.5,16.9,12.8,16.8,12.9L16.8,12.9z"/>
</svg>
