<?xml version="1.0" encoding="utf-8"?>
<!-- Generator: Adobe Illustrator 25.3.1, SVG Export Plug-In . SVG Version: 6.00 Build 0)  -->
<svg version="1.1" id="Layer_1" xmlns="http://www.w3.org/2000/svg" xmlns:xlink="http://www.w3.org/1999/xlink" x="0px" y="0px"
	 width="26.4px" height="26.4px" viewBox="0 0 26.4 26.4" style="enable-background:new 0 0 26.4 26.4;" xml:space="preserve">
<style type="text/css">
	.st0{fill:#D79656;}
	.st1{fill:#FFFFFF;}
</style>
<g>
	<circle class="st0" cx="13.2" cy="13.2" r="13.2"/>
</g>
<path class="st1" d="M18.1,11.1L12,17.2l-3.7-3.7l1.2-1.2l2.4,2.4l4.9-4.9L18.1,11.1z M6.3,13.2c0-2,0.9-3.8,2.3-5.1l2.1,2.1V5H5.4
	l1.9,1.9c-1.7,1.6-2.8,3.8-2.8,6.3c0,4.5,3.4,8.2,7.8,8.6v-1.7C8.9,19.6,6.3,16.7,6.3,13.2z M21.9,13.2c0-4.5-3.4-8.2-7.8-8.6v1.7
	c3.4,0.4,6.1,3.3,6.1,6.9c0,2-0.9,3.8-2.3,5.1l-2.1-2.1v5.2H21l-1.9-1.9C20.8,17.9,21.9,15.7,21.9,13.2z"/>
</svg>
