<?xml version="1.0" encoding="utf-8"?>
<!-- Generator: Adobe Illustrator 25.4.0, SVG Export Plug-In . SVG Version: 6.00 Build 0)  -->
<svg version="1.1" id="Layer_1" xmlns="http://www.w3.org/2000/svg" xmlns:xlink="http://www.w3.org/1999/xlink" x="0px" y="0px"
	 width="26.4px" height="26.4px" viewBox="0 0 26.4 26.4" style="enable-background:new 0 0 26.4 26.4;" xml:space="preserve">
<style type="text/css">
	.st0{fill:#253370;}
	.st1{fill:none;stroke:#FFFFFF;stroke-width:1.3204;stroke-miterlimit:10;}
</style>
<g>
	<g>
		<circle class="st0" cx="13.2" cy="13.2" r="13.2"/>
	</g>
	<path class="st1" d="M7.9,6.6c0-0.4,0.3-0.7,0.7-0.7h9.2c0.4,0,0.7,0.3,0.7,0.7v13.2c0,0.4-0.3,0.7-0.7,0.7H8.6
		c-0.4,0-0.7-0.3-0.7-0.7C7.9,19.8,7.9,6.6,7.9,6.6z"/>
	<line class="st1" x1="16.5" y1="8.6" x2="9.9" y2="8.6"/>
	<line class="st1" x1="16.5" y1="11.2" x2="9.9" y2="11.2"/>
	<line class="st1" x1="15.8" y1="18.5" x2="15.8" y2="13.2"/>
	<line class="st1" x1="13.2" y1="18.5" x2="13.2" y2="14.5"/>
	<line class="st1" x1="10.6" y1="18.5" x2="10.6" y2="15.8"/>
</g>
</svg>
