<?xml version="1.0" encoding="utf-8"?>
<!-- Generator: Adobe Illustrator 25.3.1, SVG Export Plug-In . SVG Version: 6.00 Build 0)  -->
<svg version="1.1" id="Layer_1" xmlns="http://www.w3.org/2000/svg" xmlns:xlink="http://www.w3.org/1999/xlink" x="0px" y="0px"
	 width="20px" height="20px" viewBox="0 0 20 20" style="enable-background:new 0 0 20 20;" xml:space="preserve">
<style type="text/css">
	.st0{fill:#C60C30;}
	.st1{fill:none;}
	.st2{fill:#C60C30;stroke:#C60C30;stroke-width:0.4;}
</style>
<path class="st0" d="M10,0C4.5,0,0,4.5,0,10s4.5,10,10,10s10-4.5,10-10S15.5,0,10,0z M10,18c-4.4,0-8-3.6-8-8s3.6-8,8-8s8,3.6,8,8
	S14.4,18,10,18z"/>
<g id="keyboard_return_black_24dp" transform="translate(9305.288 902.377)">
	<path id="Path_2590" class="st1" d="M-9302.4-899.5h14.3v14.3h-14.3V-899.5z"/>
	<path id="Path_2591" class="st2" d="M-9291.4-895.4v2.4h-6.6l2.1-2.1l-0.8-0.8l-3.6,3.6l3.6,3.6l0.8-0.8l-2.1-2.1h7.8v-3.6H-9291.4
		z"/>
</g>
</svg>
