<?xml version="1.0" encoding="utf-8"?>
<!-- Generator: Adobe Illustrator 25.4.0, SVG Export Plug-In . SVG Version: 6.00 Build 0)  -->
<svg version="1.1" id="Layer_1" xmlns="http://www.w3.org/2000/svg" xmlns:xlink="http://www.w3.org/1999/xlink" x="0px" y="0px"
	 width="26.4px" height="26.4px" viewBox="0 0 26.4 26.4" style="enable-background:new 0 0 26.4 26.4;" xml:space="preserve">
<style type="text/css">
	.st0{fill:#EA5329;}
	.st1{fill:none;}
	.st2{fill:none;stroke:#FFFFFF;stroke-miterlimit:10;}
	.st3{fill:#FFFFFF;}
</style>
<path class="st0" d="M26.7,13.4c0-7.3-5.9-13.2-13.2-13.2S0.3,6.1,0.3,13.4s5.9,13.2,13.2,13.2S26.7,20.7,26.7,13.4"/>
<path class="st1" d="M4.4,4.3h18.2v18.2H4.4V4.3z"/>
<path class="st2" d="M21.2,13.7l-6.8-6.8c-0.3-0.3-0.7-0.4-1.1-0.4H8c-0.8,0-1.5,0.7-1.5,1.5v5.3c0,0.4,0.2,0.8,0.4,1.1l6.8,6.8
	c0.3,0.3,0.7,0.4,1.1,0.4s0.8-0.2,1.1-0.4l5.3-5.3c0.3-0.3,0.4-0.7,0.4-1.1C21.6,14.3,21.4,13.9,21.2,13.7z"/>
<circle class="st3" cx="9.5" cy="9.5" r="1.5"/>
</svg>
